<svg xmlns="http://www.w3.org/2000/svg" viewBox="415 140 360 360">
  <path fill="#E95420" d="M595.275,150.171c-93.932,0-170.078,76.146-170.078,170.079c0,53.984,25.157,102.088,64.381,133.245v-37.423c0-8.807,7.137-15.943,15.943-15.943s15.947,7.137,15.947,15.943v57.45c3.478,1.678,7.024,3.233,10.629,4.677v-62.127c0-8.807,7.139-15.943,15.943-15.943c8.807,0,15.945,7.137,15.945,15.943v71.374c3.508,0.652,7.053,1.198,10.633,1.631v-73.005c0-8.807,7.139-15.943,15.945-15.943c8.805,0,15.944,7.137,15.944,15.943v73.878c3.572-0.232,7.119-0.565,10.629-1.016V352.287c0-8.801,7.137-15.943,15.943-15.943s15.943,7.143,15.943,15.943v129.365c67.59-22.497,116.33-86.255,116.33-161.402C765.354,226.317,689.208,150.171,595.275,150.171z"/>
  <path fill="#FFFFFF" d="M696.856,320.25H569.303c-21.133,0-38.27-17.125-38.27-38.27c0-20.339,15.871-36.965,35.898-38.192c-8.953-17.953-2.489-40.012,15.128-50.188c17.611-10.165,39.949-4.739,51.019,11.997c11.076-16.736,33.416-22.162,51.025-11.994c17.621,10.173,24.08,32.226,15.119,50.185c20.037,1.228,35.906,17.854,35.906,38.192C735.129,303.125,717.993,320.25,696.856,320.25z"/>
  <path fill="#E95420" d="M633.014,271.05c4.074,0,7.375-3.302,7.375-7.371v-34.547c0-4.07-3.301-7.37-7.375-7.37c-4.068,0-7.369,3.3-7.369,7.37v34.547C625.645,267.748,628.946,271.05,633.014,271.05z"/>
  <path fill="#E95420" d="M650.254,238.483c-3.043,2.7-3.316,7.36-0.615,10.405c7.746,8.728,7.348,22.036-0.916,30.302c-4.174,4.176-9.729,6.476-15.639,6.476c-5.9,0-11.457-2.303-15.637-6.479c-8.291-8.291-8.67-21.625-0.863-30.356c2.715-3.034,2.455-7.695-0.578-10.409c-3.035-2.712-7.699-2.453-10.41,0.582c-13.02,14.556-12.391,36.787,1.43,50.607c6.961,6.963,16.211,10.797,26.059,10.797c0,0,0,0,0.002,0c9.846,0,19.098-3.831,26.064-10.793c13.77-13.776,14.432-35.96,1.512-50.514C657.961,236.055,653.299,235.777,650.254,238.483z"/>
  <path fill="#E95420" d="M632.788,344.26c-4.4,0-7.969,3.568-7.969,7.969c0,4.406,3.568,7.975,7.969,7.975c4.406,0,7.975-3.568,7.975-7.975C640.762,347.828,637.194,344.26,632.788,344.26z"/>
</svg>
